<svg width="34" height="33" viewBox="0 0 34 33" fill="none" xmlns="http://www.w3.org/2000/svg">
<path d="M19.443 2.18428C17.1059 0.87214 14.1175 1.6508 12.7681 3.92348L0.655455 24.3248C-0.693853 26.5975 0.106873 29.5036 2.44397 30.8157C4.78108 32.1278 7.76956 31.3492 9.11893 29.0765L21.2316 8.67516C22.5809 6.40248 21.7801 3.49641 19.443 2.18428Z" fill="#FFC107"/>
<path d="M19.4431 2.18431C18.3514 1.57143 17.1177 1.41493 15.9752 1.6536C16.4603 1.75518 16.9379 1.93004 17.3908 2.18431C19.7279 3.49645 20.5286 6.40251 19.1793 8.67519L7.06664 29.0765C6.3476 30.2876 5.16304 31.0742 3.85962 31.3464C5.87797 31.769 8.03113 30.9087 9.11893 29.0765L21.2316 8.67519C22.581 6.40251 21.7802 3.49645 19.4431 2.18431Z" fill="#FFB300"/>
<path d="M4.88126 31.4531C7.5771 31.4531 9.76252 29.328 9.76252 26.7065C9.76252 24.085 7.5771 21.9598 4.88126 21.9598C2.18541 21.9598 0 24.085 0 26.7065C0 29.328 2.18541 31.4531 4.88126 31.4531Z" fill="#4CAF50"/>
<path d="M3.85948 31.3465C3.85922 31.3471 3.85909 31.3476 3.85889 31.3481C4.18866 31.4164 4.53039 31.4532 4.88114 31.4532C7.57697 31.4532 9.7624 29.328 9.7624 26.7065C9.7624 26.1241 9.65403 25.5665 9.45667 25.0509L7.06657 29.0766C6.34746 30.2877 5.16291 31.0742 3.85948 31.3465Z" fill="#43A047"/>
<path d="M33.3444 24.3249L21.2318 3.9236C19.8824 1.65092 16.894 0.872262 14.5568 2.1844C12.2197 3.49654 11.4189 6.4026 12.7683 8.67528L24.881 29.0766C26.2303 31.3493 29.2188 32.128 31.5559 30.8158C33.893 29.5037 34.6938 26.5976 33.3444 24.3249Z" fill="#2196F3"/>
<path d="M33.3446 24.3249L21.232 3.92361C20.1441 2.0914 17.991 1.23108 15.9727 1.6537C17.276 1.92595 18.4606 2.71253 19.1797 3.92361L31.2924 24.325C32.6418 26.5976 31.841 29.5037 29.5039 30.8158C29.0509 31.0701 28.5734 31.245 28.0883 31.3465C29.2307 31.5852 30.4645 31.4287 31.5562 30.8158C33.8932 29.5037 34.694 26.5976 33.3446 24.3249Z" fill="#1E88E5"/>
</svg>
