<svg width="41" height="41" viewBox="0 0 41 41" fill="none" xmlns="http://www.w3.org/2000/svg">
<g clip-path="url(#clip0_180_3055)">
<path d="M38.2337 35.7781C38.2411 37.2002 37.6379 38.5572 36.5771 39.5044C35.5163 40.4517 34.1 40.8981 32.6877 40.7303C30.1464 40.3543 28.2841 38.1428 28.346 35.5745V6.04738C28.2846 3.47633 30.1515 1.26375 32.6962 0.891572C34.1071 0.726435 35.521 1.17404 36.5799 2.12099C37.6387 3.06794 38.2408 4.42337 38.2337 5.84386V35.7781Z" fill="#F9AB00"/>
<path d="M7.12081 30.8851C9.8512 30.8851 12.0646 33.0985 12.0646 35.8289C12.0646 38.5593 9.8512 40.7727 7.12081 40.7727C4.39042 40.7727 2.177 38.5593 2.177 35.8289C2.177 33.0985 4.39042 30.8851 7.12081 30.8851ZM20.129 15.901C17.3857 16.0514 15.2573 18.3525 15.3209 21.0992V34.3788C15.3209 37.9828 16.9067 40.1706 19.2302 40.637C20.6888 40.9327 22.2031 40.5566 23.354 39.6129C24.5049 38.6691 25.1703 37.2579 25.1661 35.7695V20.8703C25.1686 19.5398 24.6364 18.2641 23.6893 17.3297C22.7421 16.3953 21.4594 15.8806 20.129 15.901Z" fill="#E37400"/>
</g>
<defs>
<clipPath id="clip0_180_3055">
<rect width="40" height="40" fill="white" transform="translate(0.205078 0.85791)"/>
</clipPath>
</defs>
</svg>
