<svg width="41" height="40" viewBox="0 0 41 40" fill="none" xmlns="http://www.w3.org/2000/svg">
<g clip-path="url(#clip0_180_2980)">
<path d="M33.9982 8.27549C32.8555 8.27549 31.9292 7.34916 31.9292 6.20651V-0.000366211H13.3085C12.1658 -0.000366211 11.2395 0.925962 11.2395 2.06862V6.8962H28.4809C29.2427 6.8962 29.8602 7.51377 29.8602 8.27549V17.9306C29.8602 18.6924 29.2427 19.3099 28.4809 19.3099H11.2395V37.9306C11.2395 39.0733 12.1658 39.9996 13.3085 39.9996H38.1361C39.2787 39.9996 40.205 39.0733 40.205 37.9306V8.27549H33.9982ZM22.0719 33.3052C22.3413 33.5746 22.3413 34.011 22.0719 34.2804C21.9372 34.4151 21.7608 34.4824 21.5843 34.4824C21.4079 34.4824 21.2314 34.415 21.0968 34.2803L16.9588 30.1424C16.6894 29.873 16.6894 29.4365 16.9588 29.1671L21.0968 25.0292C21.3661 24.7598 21.8026 24.7598 22.072 25.0292C22.3414 25.2985 22.3414 25.735 22.072 26.0044L18.4217 29.6547L22.0719 33.3052ZM28.4371 24.38L24.2991 35.4145C24.195 35.6912 23.9324 35.8617 23.6533 35.8617C23.5727 35.8617 23.4909 35.8475 23.4111 35.8178C23.0544 35.6838 22.8736 35.2864 23.0072 34.9295L27.1452 23.895C27.2793 23.5387 27.6766 23.3596 28.0332 23.4916C28.39 23.6257 28.5708 24.0231 28.4371 24.38ZM34.4858 30.1424L30.3478 34.2803C30.2131 34.4151 30.0367 34.4824 29.8602 34.4824C29.6837 34.4824 29.5072 34.415 29.3726 34.2803C29.1033 34.011 29.1033 33.5745 29.3726 33.3051L33.0229 29.6549L29.3726 26.0046C29.1033 25.7352 29.1033 25.2987 29.3726 25.0293C29.642 24.7599 30.0785 24.7599 30.3479 25.0293L34.4858 29.1673C34.7551 29.4366 34.7551 29.873 34.4858 30.1424Z" fill="white"/>
<path d="M33.9982 8.27549H40.2051L31.9292 -0.000366211V6.20651C31.9292 7.34917 32.8555 8.27549 33.9982 8.27549Z" fill="#D2DCF0"/>
<path d="M29.8602 17.9307V8.27554C29.8602 7.51382 29.2427 6.89624 28.4809 6.89624H11.2395H1.58438C0.822578 6.89624 0.205078 7.51382 0.205078 8.27554V17.9307C0.205078 18.6924 0.822578 19.31 1.58438 19.31H11.2395H28.4809C29.2427 19.31 29.8602 18.6924 29.8602 17.9307ZM8.48094 15.8617C8.48094 16.2429 8.17211 16.5514 7.79125 16.5514C7.41039 16.5514 7.10156 16.243 7.10156 15.8617V14.4824H3.65336V15.8617C3.65336 16.2429 3.34453 16.5514 2.96367 16.5514C2.58281 16.5514 2.27398 16.243 2.27398 15.8617V10.3444C2.27398 9.96327 2.58281 9.65476 2.96367 9.65476C3.34453 9.65476 3.65336 9.96319 3.65336 10.3444V13.103H7.10164V10.3444C7.10164 9.96327 7.41047 9.65476 7.79133 9.65476C8.17219 9.65476 8.48102 9.96319 8.48102 10.3444L8.48094 15.8617ZM13.9982 11.0341H12.6189V15.8617C12.6189 16.2429 12.3101 16.5514 11.9292 16.5514C11.5484 16.5514 11.2395 16.243 11.2395 15.8617V11.0341H9.86023C9.47937 11.0341 9.17055 10.7257 9.17055 10.3444C9.17055 9.96327 9.47937 9.65476 9.86023 9.65476H13.9982C14.3791 9.65476 14.6879 9.96319 14.6879 10.3444C14.6878 10.7257 14.3791 11.0341 13.9982 11.0341ZM21.5844 15.8617C21.5844 16.2429 21.2755 16.5514 20.8947 16.5514C20.5138 16.5514 20.2051 16.243 20.2051 15.8617V12.8344L19.417 14.1476C19.2925 14.3551 19.0679 14.4824 18.8257 14.4824H18.136C17.8938 14.4824 17.6693 14.3551 17.5447 14.1476L16.7566 12.8344V15.8617C16.7566 16.2429 16.4478 16.5514 16.067 16.5514C15.6861 16.5514 15.3773 16.243 15.3773 15.8617V10.3444C15.3773 10.0346 15.584 9.76257 15.8827 9.67968C16.1827 9.59819 16.4989 9.72413 16.6583 9.98952L18.4808 13.0269L20.3033 9.98952C20.4626 9.7228 20.7788 9.59757 21.0788 9.67968C21.3775 9.76249 21.5843 10.0346 21.5843 10.3444V15.8617H21.5844ZM27.1016 16.5514H23.6534C23.2725 16.5514 22.9637 16.243 22.9637 15.8617V10.3444C22.9637 9.96327 23.2725 9.65476 23.6534 9.65476C24.0342 9.65476 24.343 9.96319 24.343 10.3444V15.172H27.1016C27.4825 15.172 27.7913 15.4805 27.7913 15.8617C27.7913 16.243 27.4825 16.5514 27.1016 16.5514Z" fill="#40B4E2"/>
<path d="M7.79119 9.65491C7.41033 9.65491 7.1015 9.96334 7.1015 10.3446V13.1032H3.6533V10.3446C3.6533 9.96342 3.34447 9.65491 2.96361 9.65491C2.58275 9.65491 2.27393 9.96334 2.27393 10.3446V15.8619C2.27393 16.243 2.58275 16.5515 2.96361 16.5515C3.34447 16.5515 3.6533 16.2431 3.6533 15.8619V14.4826H7.10158V15.8619C7.10158 16.243 7.41041 16.5515 7.79127 16.5515C8.17213 16.5515 8.48096 16.2431 8.48096 15.8619V10.3446C8.48088 9.96334 8.17205 9.65491 7.79119 9.65491Z" fill="white"/>
<path d="M21.079 9.67974C20.779 9.59755 20.4628 9.72286 20.3035 9.98958L18.481 13.027L16.6585 9.98958C16.4992 9.72427 16.1829 9.59825 15.8829 9.67974C15.5842 9.76255 15.3774 10.0347 15.3774 10.3445V15.8618C15.3774 16.2429 15.6863 16.5515 16.0671 16.5515C16.448 16.5515 16.7568 16.243 16.7568 15.8618V12.8344L17.5449 14.1477C17.6694 14.3551 17.8941 14.4825 18.1362 14.4825H18.8259C19.0681 14.4825 19.2926 14.3551 19.4172 14.1477L20.2051 12.8344V15.8618C20.2051 16.2429 20.5139 16.5515 20.8948 16.5515C21.2756 16.5515 21.5845 16.243 21.5845 15.8618V10.3445C21.5844 10.0347 21.3777 9.76263 21.079 9.67974Z" fill="white"/>
<path d="M13.9981 9.65479H9.8601C9.47924 9.65479 9.17041 9.96322 9.17041 10.3445C9.17041 10.7256 9.47924 11.0342 9.8601 11.0342H11.2394V15.8617C11.2394 16.2429 11.5482 16.5514 11.9291 16.5514C12.3099 16.5514 12.6188 16.243 12.6188 15.8617V11.0342H13.9981C14.3789 11.0342 14.6878 10.7257 14.6878 10.3445C14.6877 9.96322 14.3789 9.65479 13.9981 9.65479Z" fill="white"/>
<path d="M27.1016 15.1721H24.343V10.3445C24.343 9.9633 24.0342 9.65479 23.6533 9.65479C23.2725 9.65479 22.9636 9.96322 22.9636 10.3445V15.8617C22.9636 16.2429 23.2725 16.5514 23.6533 16.5514H27.1016C27.4825 16.5514 27.7913 16.243 27.7913 15.8617C27.7913 15.4805 27.4825 15.1721 27.1016 15.1721Z" fill="white"/>
<path d="M28.0334 23.4917C27.6768 23.3598 27.2795 23.5389 27.1454 23.8952L23.0074 34.9296C22.8737 35.2866 23.0546 35.6839 23.4112 35.818C23.4911 35.8477 23.5729 35.8618 23.6534 35.8618C23.9326 35.8618 24.1952 35.6914 24.2993 35.4145L28.4373 24.3801C28.5709 24.0231 28.39 23.6258 28.0334 23.4917Z" fill="#40B4E2"/>
<path d="M22.0721 25.0294C21.8027 24.76 21.3662 24.76 21.0968 25.0294L16.9589 29.1674C16.6895 29.4368 16.6895 29.8733 16.9589 30.1426L21.0968 34.2806C21.2316 34.4154 21.4079 34.4826 21.5844 34.4826C21.7609 34.4826 21.9374 34.4153 22.072 34.2806C22.3414 34.0112 22.3414 33.5747 22.072 33.3054L18.4218 29.655L22.0721 26.0047C22.3415 25.7352 22.3415 25.2988 22.0721 25.0294Z" fill="#40B4E2"/>
<path d="M30.3479 25.0294C30.0785 24.76 29.6421 24.76 29.3727 25.0294C29.1033 25.2988 29.1033 25.7353 29.3727 26.0047L33.0231 29.6549L29.3728 33.3052C29.1034 33.5746 29.1034 34.0111 29.3728 34.2804C29.5075 34.4152 29.6839 34.4825 29.8603 34.4825C30.0368 34.4825 30.2133 34.4151 30.3479 34.2804L34.4859 30.1425C34.7553 29.8731 34.7553 29.4366 34.4859 29.1672L30.3479 25.0294Z" fill="#40B4E2"/>
</g>
<defs>
<clipPath id="clip0_180_2980">
<rect width="40" height="40" fill="white" transform="translate(0.205078 -0.000366211)"/>
</clipPath>
</defs>
</svg>
