<svg width="40" height="41" viewBox="0 0 40 41" fill="none" xmlns="http://www.w3.org/2000/svg">
<g clip-path="url(#clip0_180_3020)">
<path fill-rule="evenodd" clip-rule="evenodd" d="M7.14278 0.5H32.8571C36.7858 0.5 40 3.71421 40 7.64278V33.3571C40 37.2858 36.7858 40.5 32.8571 40.5H7.14278C3.21421 40.5 0 37.2858 0 33.3571V7.64278C0 3.71421 3.21421 0.5 7.14278 0.5Z" fill="#FFFA04"/>
<path d="M30.4594 23.2648C30.4588 23.2632 30.4589 23.2637 30.4594 23.2651V23.2648Z" fill="#212121"/>
<path d="M30.461 23.2695V23.2685L30.4592 23.2648V23.2651L30.461 23.2695Z" fill="#212121"/>
<path d="M11.304 17.1643H11.3039C11.1695 15.024 11.0023 12.3615 11.7236 10.7439C12.5511 8.88859 13.7453 7.6014 15.2143 6.77641C16.6756 5.95594 18.4003 5.59875 20.2996 5.59875C21.1281 5.59875 23.1873 5.7425 25.1395 7.00031C26.3269 7.76562 27.4732 8.94046 28.2762 10.7411C29.0133 12.3939 28.8397 15.0165 28.703 17.0834C28.6893 17.2882 28.6763 17.4876 28.6647 17.6715C28.7144 17.682 28.7713 17.6898 28.8354 17.6936C28.9977 17.6851 29.1763 17.6529 29.3699 17.5981C29.5776 17.5393 29.7976 17.4554 30.0288 17.3471C30.1468 17.292 30.2672 17.2557 30.3816 17.2328C30.5258 17.2034 30.6596 17.1953 30.7643 17.1953V17.194C30.8955 17.194 31.0305 17.2073 31.1627 17.2326C31.2883 17.2565 31.4105 17.292 31.5238 17.3378L31.5255 17.3381C31.8663 17.46 32.1477 17.6481 32.3485 17.8782C32.5635 18.1245 32.6855 18.4173 32.6916 18.7306V18.7318C32.699 19.1237 32.5357 19.4814 32.2038 19.8021C31.9097 20.0865 31.4788 20.3414 30.9133 20.5648H30.9118C30.848 20.5899 30.7707 20.6171 30.6852 20.6457C30.5527 20.6898 30.4968 20.7078 30.4408 20.7254C30.1543 20.8162 29.7944 20.9306 29.4933 21.0828C29.2272 21.2174 29.001 21.3807 28.9165 21.5801C28.8772 21.6729 28.8662 21.7846 28.8832 21.9143C28.9029 22.0654 28.9604 22.2385 29.0557 22.4323L29.0562 22.4321C29.059 22.4378 29.0582 22.4373 29.0683 22.4596L29.069 22.4595C29.0715 22.4649 29.0752 22.4735 29.0799 22.4843C29.1177 22.5724 29.5918 23.6546 30.5707 24.8082C31.5408 25.9513 33.0036 27.1552 35.013 27.4863C35.2599 27.5269 35.4716 27.6571 35.6178 27.8394C35.7643 28.0221 35.8455 28.2568 35.8318 28.5062C35.828 28.5734 35.8177 28.6424 35.8008 28.7123C35.7836 28.7838 35.7621 28.8505 35.736 28.911L35.7355 28.9109C35.5408 29.364 35.0682 29.7426 34.3068 30.0513C33.6427 30.3207 32.7366 30.5473 31.5801 30.7349C31.5424 30.8643 31.4951 31.0813 31.4624 31.231L31.4618 31.2333C31.4396 31.3346 31.4158 31.4416 31.3783 31.5969L31.378 31.5968C31.3465 31.7277 31.3135 31.8554 31.2776 31.9768L31.2772 31.9766C31.2057 32.2211 31.0755 32.414 30.8958 32.5486C30.7144 32.6844 30.4924 32.7557 30.2386 32.7557H30.2211L30.2158 32.7544L30.203 32.7543V32.7555C30.1043 32.7555 29.9888 32.7474 29.8579 32.7311C29.7346 32.716 29.5946 32.693 29.4387 32.6626C29.2124 32.6182 28.9726 32.5758 28.7107 32.5446C28.4523 32.5138 28.1693 32.4938 27.8513 32.4938C27.6665 32.4938 27.4794 32.5018 27.2916 32.5177C27.0974 32.534 26.9068 32.5576 26.7212 32.5885C26.0163 32.7057 25.3804 33.1547 24.6423 33.676L24.6416 33.6752L24.6393 33.6768V33.678C22.9999 34.8375 21.5049 35.4163 19.9981 35.4158C18.491 35.4152 16.9971 34.8354 15.3601 33.6779V33.6777L15.3596 33.6776C14.6225 33.1563 13.9856 32.7063 13.2782 32.5885V32.5882C13.0925 32.5576 12.902 32.534 12.7083 32.5174C12.5204 32.5018 12.3334 32.4938 12.1489 32.4938C11.8126 32.4938 11.5167 32.5191 11.2579 32.5538C11.0064 32.5874 10.765 32.6346 10.5615 32.6743C10.4192 32.7024 10.2867 32.7283 10.1711 32.7461C10.039 32.7666 9.91482 32.7796 9.79701 32.7796C9.50701 32.7796 9.28639 32.6982 9.11905 32.5763V32.5751C8.89577 32.4124 8.78092 32.189 8.72264 31.9901C8.68061 31.8472 8.64764 31.7202 8.61952 31.6018C8.59217 31.4865 8.56499 31.3621 8.53827 31.2394L8.53702 31.2332C8.5042 31.0829 8.4567 30.8666 8.4192 30.7377C7.2628 30.5502 6.35687 30.3233 5.69297 30.0535C4.93078 29.744 4.4575 29.3638 4.26313 28.9087V28.9074C4.23407 28.8391 4.21219 28.7738 4.19735 28.7115C4.18203 28.6468 4.17203 28.5784 4.16797 28.5069C4.15438 28.2574 4.23594 28.0226 4.38235 27.8399C4.52844 27.6576 4.74016 27.5276 4.98703 27.4866C6.99546 27.156 8.45842 25.9523 9.42858 24.809C10.4067 23.6567 10.8822 22.5717 10.9203 22.4835L10.9209 22.4837C10.9326 22.4557 10.9348 22.4506 10.9367 22.4467L10.9372 22.447L10.9397 22.4418L10.9423 22.4363C11.0386 22.241 11.0969 22.0665 11.1167 21.9142C11.1337 21.7849 11.1228 21.6737 11.084 21.5812L11.0836 21.5815C10.9003 21.1499 10.0934 20.8935 9.55936 20.724H9.55904L9.55889 20.7251C9.51529 20.7115 9.47123 20.6974 9.31686 20.6459C9.22155 20.6142 9.14076 20.5862 9.08655 20.5648C8.41608 20.2999 7.98655 20.009 7.71921 19.7221C7.31858 19.2918 7.26452 18.8664 7.32952 18.5248C7.40327 18.136 7.65561 17.8156 7.98483 17.589C8.33108 17.3511 8.76936 17.2136 9.16655 17.2136C9.27686 17.2136 9.38639 17.2246 9.49436 17.2467C9.60186 17.2687 9.70389 17.3021 9.79982 17.3471C10.049 17.464 10.2854 17.5521 10.5072 17.6117C10.7159 17.6673 10.9084 17.6954 11.0829 17.6954C11.1839 17.6954 11.2673 17.6859 11.3356 17.6718C11.3289 17.5603 11.3212 17.4411 11.3139 17.3231L11.304 17.1671V17.1659V17.1643Z" fill="#FFFFFE"/>
<path d="M10.8872 17.2656V17.1643C10.7505 14.9837 10.5841 12.2799 11.3444 10.5746C11.7767 9.60511 12.3052 8.78387 12.9175 8.097C13.5345 7.40497 14.2364 6.84841 15.0109 6.41356C15.7759 5.98403 16.61 5.6756 17.5016 5.47466C18.3873 5.27498 19.3236 5.18201 20.2997 5.18201C20.8222 5.18201 21.8158 5.23716 22.9754 5.57294C23.7323 5.79232 24.5573 6.1306 25.364 6.65044C26.0287 7.07872 26.6807 7.62872 27.2725 8.33403C27.7903 8.95168 28.2621 9.68996 28.6554 10.5717C29.4351 12.3196 29.2578 14.9979 29.1181 17.1088V17.1095L29.1156 17.1473L29.1098 17.2359C29.1557 17.2252 29.2053 17.2126 29.2578 17.1976C29.346 17.1727 29.441 17.1409 29.5426 17.102C29.6526 17.0601 29.7562 17.0163 29.8529 16.971C29.9295 16.9352 30.0018 16.907 30.0695 16.8849H30.071C30.1454 16.861 30.2228 16.8415 30.3003 16.8257C30.3162 16.8224 30.332 16.8195 30.3476 16.8166V16.7773H30.7643C30.8332 16.7773 30.9128 16.7816 31.0015 16.7901C31.0867 16.7985 31.1668 16.8098 31.2407 16.824C31.3112 16.8374 31.386 16.8557 31.4642 16.8784C31.5317 16.8979 31.5954 16.9195 31.6551 16.9426L31.6654 16.9457C31.8651 17.0171 32.049 17.1087 32.2138 17.2168C32.3835 17.3281 32.5338 17.4588 32.6612 17.6048C32.8007 17.7648 32.9101 17.9409 32.9857 18.1285C33.0612 18.3159 33.1026 18.5151 33.1066 18.7224L33.1084 18.7305V18.7318H33.1066C33.1106 18.9874 33.0591 19.2323 32.9526 19.4659C32.8493 19.6926 32.6957 19.9048 32.492 20.1016C32.321 20.2668 32.114 20.4213 31.8715 20.5648C31.6357 20.704 31.367 20.8334 31.0663 20.9521L31.0604 20.9532C31.0246 20.9674 30.9859 20.9816 30.9449 20.9962C30.9254 21.0032 30.8801 21.0185 30.817 21.0396L30.6629 21.091C30.5663 21.1224 30.5765 21.1194 30.5662 21.1226C30.4095 21.1723 30.2329 21.2283 30.1124 21.2716C29.9667 21.3243 29.8179 21.3844 29.6806 21.4538C29.5717 21.509 29.474 21.5674 29.4006 21.6279C29.3499 21.6694 29.3135 21.7087 29.299 21.7429L29.2984 21.7427C29.2956 21.7501 29.2934 21.7604 29.2921 21.774C29.2898 21.7988 29.2906 21.8277 29.2949 21.8607C29.3015 21.9112 29.3149 21.9669 29.3351 22.0273C29.3403 22.0429 29.346 22.0588 29.3521 22.0751L29.4345 22.2594L29.4348 22.2601L29.4392 22.2699L29.4428 22.278L29.4431 22.2788L29.4437 22.2799L29.4482 22.2902L29.4529 22.3005L29.4562 22.3055L29.4624 22.3199V22.3216C29.4801 22.3633 29.6012 22.6399 29.8321 23.0401C30.0667 23.4466 30.4151 23.9821 30.8881 24.5396C31.3998 25.1426 32.0548 25.763 32.8607 26.2488C33.5035 26.6363 34.242 26.9382 35.0799 27.0763C35.2548 27.1049 35.416 27.1641 35.5582 27.2471C35.7052 27.333 35.8351 27.4461 35.9416 27.579C36.0476 27.711 36.1296 27.8624 36.1821 28.0263C36.2334 28.1854 36.2565 28.355 36.2468 28.5289C36.244 28.5793 36.2394 28.6257 36.233 28.6683V28.67C36.2279 28.7043 36.2184 28.7505 36.2044 28.8082C36.1915 28.8632 36.179 28.9086 36.1674 28.9444C36.1515 28.9927 36.1351 29.0368 36.1185 29.0752L35.9616 29.4388L35.9182 29.4225C35.8051 29.5771 35.6632 29.7225 35.4926 29.8591C35.2205 30.0764 34.8777 30.2689 34.463 30.4371C34.1138 30.5788 33.7027 30.7086 33.229 30.8274C32.8407 30.9246 32.4037 31.0152 31.9174 31.0994C31.9052 31.1542 31.8856 31.2439 31.8693 31.3188L31.8676 31.3205L31.8674 31.321L31.8687 31.3213L31.8312 31.486C31.8184 31.5421 31.8027 31.6088 31.782 31.6946L31.6882 32.0836L31.6799 32.0819L31.6765 32.0939L31.5635 32.4771L31.516 32.4652C31.5023 32.4885 31.4879 32.5113 31.4729 32.5339C31.3831 32.6685 31.2731 32.7846 31.1448 32.8806C31.0145 32.9783 30.8713 33.0521 30.7167 33.1008C30.6849 33.1108 30.6524 33.1199 30.6198 33.1277V33.1722H30.2715C30.2606 33.1724 30.2495 33.1724 30.2387 33.1724H30.2212L30.2187 33.1722H30.2031C30.1495 33.1722 30.0862 33.1696 30.0134 33.1644V33.1642C29.9417 33.1592 29.8728 33.1527 29.8076 33.1446C29.7557 33.1383 29.6845 33.1275 29.5938 33.1128C29.5048 33.098 29.426 33.0842 29.3588 33.0711C29.2353 33.0469 29.1184 33.0249 29.0214 33.0089C28.9153 32.9914 28.7973 32.9742 28.6618 32.958C28.534 32.9428 28.4059 32.9305 28.279 32.9227C28.1529 32.9147 28.0115 32.9103 27.8514 32.9103C27.7442 32.9103 27.6567 32.9117 27.5889 32.9147C27.5195 32.9177 27.4317 32.9236 27.3257 32.9327C27.2351 32.9402 27.1442 32.9497 27.0534 32.9611C26.9496 32.9738 26.8609 32.9864 26.7879 32.9986C26.189 33.0981 25.5976 33.5105 24.9148 33.9925L24.59 34.3175L24.5417 34.2497C23.8145 34.735 23.1101 35.1086 22.4154 35.371C21.6025 35.6778 20.8036 35.8309 19.9981 35.8308C19.1923 35.8306 18.3939 35.6767 17.5816 35.3695C16.7842 35.0685 15.975 34.6208 15.1333 34.0269L15.1287 34.0242L15.1284 34.0241L15.1202 34.0177C14.4242 33.5256 13.823 33.1006 13.2097 32.9986L13.1541 32.9894C13.0934 32.98 13.0241 32.9705 12.9458 32.961C12.8552 32.9497 12.7644 32.9402 12.6742 32.9325C12.5681 32.9236 12.48 32.9177 12.4111 32.9147C12.3433 32.9117 12.2559 32.9103 12.1489 32.9103C11.9855 32.9103 11.8378 32.9163 11.7036 32.9258C11.5555 32.9364 11.4261 32.9502 11.3117 32.9655C11.0906 32.995 10.8481 33.0425 10.6435 33.0825V33.0827L10.6428 33.0828H10.6413C10.6027 33.0905 10.5669 33.0975 10.4328 33.1225C10.35 33.1381 10.2803 33.1506 10.2347 33.1577V33.1578C10.1767 33.1669 10.1061 33.1755 10.0161 33.1838C9.93142 33.1917 9.85767 33.1963 9.79705 33.1963C9.61799 33.1963 9.45596 33.1711 9.30955 33.1274C9.14471 33.0778 9.0008 33.0031 8.87487 32.9116L8.70237 32.786V32.7622C8.63799 32.6971 8.58221 32.6281 8.53424 32.5574C8.43205 32.4067 8.36612 32.251 8.32393 32.1072C8.30112 32.0299 8.28143 31.9586 8.26393 31.8925C8.24034 31.8033 8.2244 31.7407 8.21424 31.6978C8.21112 31.6846 8.20018 31.6336 8.17346 31.5128C8.11471 31.2491 8.14674 31.3972 8.13143 31.3272L8.13268 31.3269L8.13174 31.3227L8.13081 31.3207L8.13002 31.3208L8.12877 31.3157L8.12846 31.3146V31.3144H8.12862C8.11456 31.2503 8.09815 31.175 8.08159 31.1022C7.59565 31.0182 7.15878 30.9274 6.7705 30.8302C6.29706 30.7113 5.88581 30.5811 5.5366 30.4393C5.1191 30.2697 4.77551 30.0764 4.50473 29.8594C4.2127 29.6257 4.00535 29.3632 3.88051 29.0714L3.87926 29.0657C3.8602 29.0205 3.8441 28.9782 3.83082 28.9389C3.81348 28.8866 3.80051 28.8427 3.79207 28.8075C3.78254 28.7669 3.7741 28.721 3.7666 28.6702C3.76035 28.6266 3.75598 28.5796 3.75301 28.5296C3.74364 28.3555 3.76692 28.1858 3.81785 28.0271C3.87051 27.863 3.9527 27.7114 4.05848 27.5793C4.16504 27.4465 4.29488 27.3335 4.44191 27.2475C4.58426 27.1644 4.74535 27.1054 4.92051 27.0765C5.75769 26.9386 6.49612 26.6371 7.13878 26.2497C7.9444 25.7638 8.5994 25.1435 9.11111 24.5404C9.58377 23.9837 9.93236 23.4477 10.1674 23.0404C10.3956 22.6443 10.5194 22.3616 10.5377 22.319L10.6686 22.0148C10.6867 21.9577 10.6989 21.9063 10.705 21.8605C10.7094 21.8276 10.7105 21.7988 10.708 21.7746C10.707 21.7658 10.706 21.7585 10.7047 21.7529L10.7013 21.7443C10.656 21.6379 10.4839 21.5291 10.2739 21.429C10.1099 21.3505 9.92517 21.2816 9.74783 21.2216L9.4333 21.1223C9.42439 21.1194 9.45049 21.1277 9.3508 21.0952L9.18502 21.0399L9.18518 21.0393C9.1158 21.0163 9.06799 21.0002 9.04971 20.9938C8.98862 20.9724 8.94768 20.9576 8.93362 20.9521C8.59565 20.8187 8.30909 20.6749 8.06628 20.5252C7.79112 20.3555 7.57815 20.1805 7.41503 20.0051C7.18878 19.7623 7.0494 19.5155 6.97144 19.2762C6.87425 18.9774 6.87409 18.6959 6.92112 18.448C6.968 18.2012 7.06878 17.976 7.20862 17.7762C7.35393 17.569 7.53971 17.3912 7.74878 17.2473C7.95503 17.1056 8.18815 16.9937 8.42909 16.9171C8.67565 16.8388 8.92815 16.7968 9.16658 16.7968C9.22721 16.7968 9.2958 16.8007 9.37205 16.8084C9.44049 16.8152 9.50908 16.8257 9.57752 16.8398C9.6533 16.8552 9.72158 16.8731 9.78174 16.8927L9.78158 16.8934C9.84439 16.914 9.90908 16.9399 9.97564 16.971C10.0899 17.0245 10.201 17.0716 10.3083 17.1116C10.4075 17.1487 10.5099 17.1813 10.6147 17.2095C10.7045 17.2334 10.7885 17.2512 10.8667 17.2626L10.8872 17.2656ZM11.7189 17.1381L11.7205 17.161L11.7208 17.1659V17.167L11.7289 17.2971V17.2988L11.7508 17.6474L11.7733 18.0052L11.4203 18.0787C11.3734 18.0882 11.3211 18.0965 11.2624 18.1023C11.1992 18.1085 11.1388 18.1121 11.083 18.1121C10.9791 18.1121 10.8678 18.1034 10.7495 18.0862C10.6355 18.0696 10.5189 18.0452 10.3999 18.0135C10.2827 17.9821 10.1553 17.9409 10.0186 17.8896C9.89033 17.8416 9.75877 17.7862 9.62393 17.7231C9.59533 17.7096 9.56158 17.6965 9.52299 17.684H9.52143C9.47971 17.6701 9.44299 17.6599 9.41143 17.6535C9.37189 17.6456 9.33143 17.6393 9.29065 17.6352C9.25752 17.6318 9.21596 17.6302 9.16658 17.6302C9.00627 17.6302 8.83955 17.6573 8.67987 17.7081C8.51721 17.7598 8.35987 17.8354 8.22096 17.9309C8.08862 18.0218 7.97409 18.1299 7.88893 18.2516C7.81503 18.357 7.76221 18.4743 7.73815 18.6012C7.71409 18.7273 7.71393 18.8698 7.76268 19.0191C7.80549 19.151 7.88706 19.2923 8.02362 19.4388C8.14049 19.5643 8.29674 19.6919 8.50237 19.8188C8.69643 19.9384 8.93908 20.0587 9.23955 20.1773C9.27971 20.1932 9.30643 20.2034 9.32299 20.2093C9.38221 20.2299 9.42189 20.2438 9.44705 20.2521H9.44861C9.46971 20.2591 9.53143 20.2791 9.60799 20.3041C9.63611 20.3134 9.63158 20.3113 9.68424 20.3279L9.68393 20.3285H9.68471C9.96424 20.4173 10.3152 20.5287 10.6322 20.6802C10.8617 20.7899 11.0727 20.9215 11.2328 21.0821L11.3119 21.0524L11.4628 21.4112L11.4661 21.4188H11.4659L11.4666 21.4201C11.5025 21.5057 11.5253 21.5968 11.5349 21.6932C11.5433 21.7799 11.5413 21.8716 11.5288 21.968C11.515 22.071 11.4895 22.179 11.4522 22.2912C11.4169 22.3962 11.3719 22.5051 11.3164 22.6174L11.3152 22.6205L11.3158 22.6207L11.3131 22.6262L11.3111 22.6304L11.305 22.6449L11.1391 23.0404L11.1183 23.0308C11.0569 23.1494 10.9799 23.2921 10.8867 23.4538C10.6295 23.8993 10.2513 24.4821 9.74596 25.0776C9.18299 25.741 8.46049 26.4247 7.56831 26.9625C6.84409 27.399 6.008 27.7397 5.05394 27.8968C4.98597 27.908 4.92113 27.9322 4.86191 27.9669C4.80082 28.0025 4.74832 28.0479 4.70613 28.1004C4.66316 28.1538 4.63004 28.215 4.60894 28.2808C4.58848 28.3443 4.57926 28.4127 4.58316 28.4839C4.58441 28.5052 4.58676 28.5283 4.59035 28.553C4.59269 28.5704 4.59691 28.5911 4.60269 28.6155C4.60894 28.6424 4.61441 28.6622 4.61879 28.6752C4.62707 28.7 4.63613 28.7239 4.64535 28.746L4.64551 28.7458C4.71519 28.9091 4.8416 29.0644 5.02551 29.2116C5.2305 29.3758 5.50457 29.5278 5.8491 29.6678C6.16394 29.7957 6.538 29.9138 6.97237 30.0228C7.42112 30.1353 7.92471 30.2368 8.4844 30.3275L8.7444 30.3697L8.81783 30.6221C8.86408 30.7799 8.91112 30.9953 8.94377 31.1452L8.94549 31.1516V31.1517H8.94518C8.98705 31.3441 8.95237 31.1919 8.98393 31.3338L9.02471 31.5058C9.04268 31.5811 9.05752 31.6416 9.06799 31.6808C9.0844 31.7435 9.10205 31.8075 9.12127 31.8728C9.14315 31.9467 9.17486 32.0236 9.22111 32.0919C9.25768 32.1458 9.30424 32.1967 9.3633 32.2397L9.39111 32.26C9.43502 32.2878 9.48674 32.3117 9.54705 32.3297C9.61721 32.3508 9.69986 32.3628 9.79705 32.3628C9.85439 32.3628 9.90158 32.3608 9.94127 32.3571C9.97596 32.3538 10.0338 32.3458 10.1077 32.3344H10.1094C10.1792 32.3236 10.2328 32.3142 10.2799 32.3057L10.4802 32.2661V32.266L10.4806 32.2656H10.4824C10.6841 32.2263 10.9231 32.1796 11.2042 32.1419C11.3486 32.1227 11.4966 32.1064 11.6452 32.0958C11.8078 32.0839 11.9763 32.0771 12.1489 32.0771C12.2261 32.0771 12.3247 32.0797 12.4434 32.0847C12.5611 32.0897 12.6608 32.0955 12.7425 32.1024C12.8458 32.1113 12.9473 32.1217 13.0467 32.1341C13.1327 32.1447 13.2322 32.1594 13.345 32.178L13.3466 32.1783L13.352 32.1791L13.7475 32.2446L13.7433 32.2741C14.372 32.4728 14.9405 32.8719 15.5792 33.3236L16.0622 33.5649L16.0097 33.6174C16.6519 34.0385 17.2701 34.3633 17.8744 34.5917C18.595 34.8639 19.2969 35.0005 19.9981 35.0006C20.6994 35.001 21.4017 34.865 22.1225 34.5928C22.8318 34.325 23.5606 33.9244 24.3253 33.3905L24.3984 33.3383L24.4009 33.3364L24.7382 33.0955L24.7406 33.0988C25.3825 32.6535 25.9715 32.2917 26.6543 32.1783C26.767 32.1596 26.8662 32.1449 26.9525 32.1341C27.0521 32.1217 27.1537 32.1113 27.2573 32.1025C27.3392 32.0955 27.439 32.0897 27.5565 32.0847C27.6751 32.0797 27.7737 32.0771 27.8514 32.0771C28.009 32.0771 28.1682 32.0827 28.3279 32.0927C28.4862 32.1024 28.629 32.1157 28.7595 32.1311C28.8859 32.1463 29.019 32.1661 29.1548 32.1886C29.2996 32.2125 29.4157 32.2339 29.5184 32.2539C29.6071 32.2713 29.6765 32.2842 29.7273 32.2925C29.7763 32.3003 29.8368 32.3089 29.9084 32.3177C29.9735 32.3256 30.0276 32.3313 30.0704 32.3344H30.072C30.1142 32.3374 30.1578 32.3388 30.2031 32.3388V32.3391H30.2081L30.2207 32.3394H30.2212V32.3391H30.2387C30.3237 32.3391 30.4009 32.3278 30.4693 32.3064C30.5356 32.2857 30.5949 32.2553 30.6467 32.2166C30.6988 32.1775 30.7445 32.1289 30.7829 32.0716C30.8231 32.0113 30.8552 31.941 30.8787 31.861L30.879 31.8596C30.8951 31.8047 30.9113 31.746 30.9276 31.6846C30.9502 31.5985 30.9651 31.5399 30.9745 31.5008L30.9748 31.4992C30.9917 31.4296 31.0065 31.3652 31.0206 31.3036C31.0252 31.2833 31.0327 31.2472 31.0549 31.1455L31.0565 31.1438L31.0568 31.1433L31.0554 31.1432C31.0681 31.0853 31.0834 31.0158 31.1142 30.8825C31.1349 30.7922 31.1581 30.6999 31.1813 30.6194L31.2548 30.3669L31.5149 30.3247C32.0749 30.2338 32.5785 30.1325 33.0273 30.0202C33.4618 29.9113 33.836 29.7932 34.1505 29.6657C34.4971 29.525 34.7715 29.3736 34.9749 29.2113C35.1565 29.0663 35.2821 28.9114 35.353 28.7464L35.3655 28.7172C35.3696 28.7068 35.3734 28.6968 35.3763 28.6874C35.3862 28.6568 35.3934 28.6329 35.3973 28.6163C35.4002 28.6039 35.4043 28.5805 35.4095 28.5461H35.4096C35.4134 28.5208 35.416 28.4999 35.4166 28.4835C35.4207 28.4121 35.4115 28.3435 35.3912 28.2802C35.3702 28.2146 35.337 28.1533 35.294 28.0997C35.2521 28.0475 35.1993 28.0021 35.1382 27.9664C35.0791 27.9318 35.0143 27.9077 34.9465 27.8966C33.9918 27.7391 33.1554 27.3983 32.431 26.9616C31.5388 26.424 30.8163 25.7402 30.2534 25.0766C29.7476 24.4808 29.3695 23.8983 29.1128 23.4533C29.0121 23.2791 28.9304 23.1262 28.8665 23.0015L28.861 23.0038L28.7798 22.8265C28.7339 22.7307 28.7067 22.669 28.6981 22.6487L28.6974 22.6488L28.6912 22.6341L28.6918 22.634L28.6909 22.6321L28.6792 22.6068C28.6256 22.4968 28.5814 22.3902 28.5473 22.2876C28.5098 22.1754 28.4845 22.0688 28.4714 21.9682C28.4587 21.8713 28.4567 21.7794 28.4654 21.6926C28.4749 21.5955 28.4978 21.5043 28.534 21.419V21.4173C28.604 21.2526 28.7232 21.1102 28.8732 20.9866C29.0006 20.8819 29.1493 20.7912 29.3063 20.7116C29.4698 20.629 29.6518 20.5557 29.8324 20.4905C30.039 20.416 30.1857 20.3694 30.3154 20.3284C30.3818 20.3074 30.3845 20.3069 30.4059 20.3001C30.477 20.2768 30.5346 20.258 30.5535 20.2516C30.5756 20.2443 30.612 20.2318 30.6682 20.2116C30.7023 20.1996 30.7332 20.188 30.7604 20.1776V20.1773C31.0246 20.0729 31.2542 19.9632 31.4484 19.8485C31.6363 19.7374 31.7923 19.6218 31.9159 19.5026C32.0442 19.3787 32.1381 19.2513 32.1974 19.1209C32.2526 18.9998 32.279 18.8724 32.2767 18.7387V18.7382L32.2749 18.7318V18.7305H32.2765C32.2735 18.6301 32.2521 18.5318 32.2143 18.4376C32.1734 18.3363 32.1132 18.2401 32.0362 18.1515C31.961 18.0654 31.8674 17.9851 31.7581 17.9134C31.6485 17.8415 31.5237 17.7796 31.3854 17.7302L31.386 17.7291L31.3692 17.7234C31.3224 17.7046 31.277 17.6887 31.2331 17.6759C31.1898 17.6632 31.1401 17.6516 31.0845 17.6409C31.0262 17.6298 30.972 17.6216 30.9235 17.6171C30.8795 17.6129 30.8262 17.6107 30.7643 17.6107V17.6102C30.7201 17.6102 30.6678 17.6123 30.6087 17.6181C30.5612 17.6226 30.512 17.6296 30.4631 17.6395C30.4212 17.6479 30.3756 17.6598 30.3265 17.6756L30.3267 17.6762C30.2817 17.6907 30.2401 17.7065 30.2045 17.7231C30.0701 17.786 29.9482 17.8384 29.8387 17.8801C29.7204 17.9251 29.6017 17.9646 29.4824 17.9984C29.3779 18.0281 29.2718 18.0524 29.1639 18.0718V18.0734C29.0637 18.0912 28.961 18.1031 28.8565 18.1085H28.8126C28.7767 18.1065 28.7373 18.1026 28.6959 18.0973C28.6495 18.0912 28.6112 18.0849 28.5801 18.0784L28.2274 18.0045L28.2498 17.647C28.2621 17.4471 28.2739 17.2729 28.2854 17.0952L28.2879 17.0574V17.0568C28.4218 15.034 28.5918 12.4678 27.897 10.9103C27.5384 10.1061 27.1075 9.43215 26.6343 8.86793C26.1006 8.23137 25.5131 7.73575 24.9148 7.35012C24.1803 6.87684 23.4307 6.56935 22.7442 6.37044C21.6909 6.06544 20.7798 6.01544 20.2997 6.01544C19.3764 6.01544 18.5006 6.10122 17.6839 6.28513C16.8728 6.4681 16.1139 6.74856 15.4178 7.1395C14.7233 7.52934 14.0934 8.02903 13.5392 8.65059C12.9803 9.27746 12.4978 10.0275 12.1028 10.9131C11.4655 12.3429 11.5706 14.7274 11.6947 16.7476H11.6964L11.7174 17.111L11.7189 17.1381Z" fill="#212121"/>
</g>
<defs>
<clipPath id="clip0_180_3020">
<rect width="40" height="40" fill="white" transform="translate(0 0.5)"/>
</clipPath>
</defs>
</svg>
