<svg width="41" height="41" viewBox="0 0 41 41" fill="none" xmlns="http://www.w3.org/2000/svg">
<path d="M24.2728 38.862L17.3296 32.0915L32.241 16.8643L39.4296 23.9097L24.2728 38.862Z" fill="#8AB4F8"/>
<path d="M24.3024 8.92789L17.3842 1.86426L2.25693 16.8483C0.306934 18.7983 0.306934 21.9597 2.25693 23.912L17.1569 38.9097L24.2024 32.3188L12.8501 20.3802L24.3024 8.92789Z" fill="#4285F4"/>
<path d="M39.3296 16.9642L24.3296 1.9642C22.3773 0.0119318 19.2114 0.0119318 17.2591 1.9642C15.3069 3.91648 15.3069 7.08239 17.2591 9.03466L32.2591 24.0347C34.2114 25.9869 37.3773 25.9869 39.3296 24.0347C41.2819 22.0824 41.2819 18.9165 39.3296 16.9642Z" fill="#8AB4F8"/>
<path d="M20.6796 40.5005C23.3782 40.5005 25.5659 38.3128 25.5659 35.6141C25.5659 32.9155 23.3782 30.7278 20.6796 30.7278C17.9809 30.7278 15.7932 32.9155 15.7932 35.6141C15.7932 38.3128 17.9809 40.5005 20.6796 40.5005Z" fill="#246FDB"/>
</svg>
