<svg width="34" height="33" viewBox="0 0 34 33" fill="none" xmlns="http://www.w3.org/2000/svg">
<path d="M12.0318 17.1058C9.41502 17.1058 7.30096 19.2199 7.33963 21.8109C7.36541 23.4738 8.28065 24.9175 9.62772 25.7232C9.1701 25.0207 8.8994 24.1892 8.88651 23.2933C8.84784 20.7023 10.9619 18.5882 13.5787 18.5882C14.0943 18.5882 14.5906 18.672 15.0547 18.8203V13.6318C14.5713 13.5609 14.075 13.5222 13.5787 13.5222C13.5529 13.5222 13.5336 13.5222 13.5078 13.5222V17.3378C13.0437 17.1896 12.5474 17.1058 12.0318 17.1058Z" fill="#F00044"/>
<path d="M23.3434 1.54688H23.3047H21.9641C22.3508 3.48691 23.4401 5.17559 24.9612 6.32285C23.9622 5.00156 23.3563 3.35156 23.3434 1.54688Z" fill="#F00044"/>
<path d="M31.2324 9.44233C30.7232 9.44233 30.2333 9.39077 29.7499 9.30054V13.0195C27.9968 13.0195 26.2953 12.6779 24.6968 11.9947C23.6656 11.5564 22.7052 10.9957 21.8222 10.3189L21.848 21.7851C21.8351 24.3632 20.8167 26.7802 18.9734 28.6042C17.4716 30.0867 15.5703 31.0341 13.5078 31.3371C13.0244 31.408 12.5281 31.4466 12.0318 31.4466C9.82749 31.4466 7.72632 30.7312 6.01831 29.4099C6.21167 29.6419 6.41792 29.8675 6.64351 30.0867C8.49976 31.9171 10.9619 32.9291 13.5851 32.9291C14.0814 32.9291 14.5777 32.8904 15.0611 32.8195C17.1236 32.5166 19.0249 31.5691 20.5267 30.0867C22.3701 28.2626 23.3884 25.8457 23.4013 23.2675L23.3046 11.8013C24.1812 12.4781 25.1416 13.0453 26.1792 13.4771C27.7841 14.1539 29.4857 14.5019 31.2324 14.5019" fill="#F00044"/>
<path d="M6.6242 16.3775C8.46111 14.5535 10.9039 13.5416 13.5078 13.5222V12.1494C13.0244 12.0785 12.5281 12.0398 12.0318 12.0398C9.40213 12.0398 6.93357 13.0517 5.07732 14.8951C3.2533 16.7062 2.20916 19.1812 2.21561 21.7529C2.21561 24.3439 3.24041 26.7738 5.09022 28.6107C5.3867 28.9007 5.68963 29.1714 6.01189 29.4164C4.55525 27.6826 3.76248 25.5169 3.75604 23.2353C3.76248 20.6636 4.80018 18.1886 6.6242 16.3775Z" fill="#08FFF9"/>
<path d="M29.75 9.30061V7.92131H29.7371C27.9453 7.92131 26.2953 7.32834 24.9675 6.32288C26.1212 7.84397 27.8099 8.92678 29.75 9.30061Z" fill="#08FFF9"/>
<path d="M13.3144 27.8566C13.9267 27.8889 14.5132 27.8051 15.0546 27.6311C16.9238 27.0187 18.2709 25.2785 18.2709 23.2289L18.2773 15.559V1.54687H21.964C21.8673 1.06348 21.8158 0.573633 21.8093 0.0644531H16.7304V14.0701L16.724 21.74C16.724 23.7896 15.3769 25.5299 13.5078 26.1422C12.9664 26.3227 12.3798 26.4064 11.7675 26.3678C10.9876 26.3227 10.2593 26.0906 9.62769 25.7168C10.4205 26.9414 11.774 27.7729 13.3144 27.8566Z" fill="#08FFF9"/>
<path d="M13.5078 31.3371C15.5703 31.0342 17.4717 30.0867 18.9734 28.6043C20.8168 26.7803 21.8351 24.3633 21.848 21.7852L21.8222 10.3189C22.6988 10.9957 23.6592 11.5629 24.6969 11.9947C26.3017 12.6715 28.0033 13.0195 29.75 13.0195V9.30059C27.8099 8.92676 26.1213 7.84395 24.9676 6.32285C23.4465 5.17559 22.3508 3.48691 21.9705 1.54688H18.2773V15.5525L18.2709 23.2225C18.2709 25.2721 16.9238 27.0123 15.0547 27.6246C14.5133 27.8051 13.9267 27.8889 13.3144 27.8502C11.7676 27.7664 10.4205 26.935 9.62772 25.7168C8.28065 24.9176 7.36541 23.4674 7.33963 21.8045C7.30096 19.2135 9.41502 17.0994 12.0318 17.0994C12.5474 17.0994 13.0437 17.1832 13.5078 17.3314V13.5158C10.9039 13.5352 8.46111 14.5471 6.6242 16.3711C4.80018 18.1822 3.75604 20.6572 3.76248 23.2225C3.76248 25.5041 4.55525 27.6697 6.01834 29.4035C7.73279 30.7248 9.82752 31.4402 12.0318 31.4402C12.5281 31.4467 13.0244 31.408 13.5078 31.3371Z" fill="black"/>
</svg>
